<?xml version="1.0" standalone="no"?>
<!DOCTYPE svg PUBLIC "-//W3C//DTD SVG 20010904//EN"
 "http://www.w3.org/TR/2001/REC-SVG-20010904/DTD/svg10.dtd">
<svg version="1.0" xmlns="http://www.w3.org/2000/svg"
 width="512.000000pt" height="512.000000pt" viewBox="0 0 512.000000 512.000000"
 preserveAspectRatio="xMidYMid meet">
<metadata>
Created by potrace 1.11, written by Peter Selinger 2001-2013
</metadata>
<g transform="translate(0.000000,512.000000) scale(0.100000,-0.100000)"
fill="#000000" stroke="none">
<path d="M2550 4183 c-1 -60 0 -182 0 -273 l1 -165 -138 -71 c-76 -39 -248
-127 -383 -196 -548 -280 -664 -340 -865 -443 -115 -59 -214 -111 -219 -115
-4 -5 -9 -43 -10 -87 l-1 -78 -415 -2 c-228 0 -419 -2 -425 -2 -7 -1 -10 -282
-10 -823 l0 -823 -30 -5 -30 -5 0 -100 0 -100 2545 0 2545 0 3 103 c2 94 1
103 -15 102 -10 -1 -26 -2 -35 -1 -17 1 -18 47 -18 825 0 776 -1 824 -17 828
-10 2 -201 3 -425 3 l-408 -1 -1 50 c0 28 0 70 1 93 l1 42 -255 128 c-140 70
-252 131 -249 137 3 5 1 6 -5 2 -6 -4 -253 115 -549 263 l-538 269 0 96 0 96
219 2 220 3 1 165 c1 91 -1 171 -3 178 -3 9 -62 12 -248 12 l-244 0 0 -107z
m99 -808 c38 -7 113 -44 148 -72 37 -31 84 -96 78 -110 -2 -8 -1 -12 4 -9 20
13 50 -111 43 -179 -12 -131 -88 -236 -211 -294 -47 -22 -70 -26 -141 -26 -99
0 -168 26 -239 90 -95 86 -135 247 -93 368 18 49 73 136 94 145 3 2 17 12 30
23 70 62 173 85 287 64z m-1507 -899 c5 -8 8 -8 8 0 0 13 568 13 589 0 9 -6
12 -5 8 1 -9 14 186 13 195 -1 5 -8 8 -8 8 0 0 13 568 13 589 0 9 -6 12 -5 8
1 -9 14 1186 13 1195 -1 5 -8 8 -8 8 -1 0 7 73 11 220 11 205 0 220 -1 221
-18 0 -10 0 -38 0 -63 0 -25 0 -56 0 -70 l-1 -25 -152 0 -153 0 0 -527 0 -527
108 1 107 1 0 -79 c0 -56 -4 -79 -12 -79 -23 -1 -763 -1 -773 -1 -9 1 -12 70
-6 148 1 9 29 12 101 11 56 0 103 2 106 5 4 4 8 856 5 1020 l-1 27 -958 0
-957 0 1 -187 c0 -104 -3 -195 -7 -204 -5 -9 -5 -19 -1 -23 10 -10 9 -566 -2
-566 -5 0 -4 -6 2 -12 5 -7 8 -23 6 -35 -4 -26 -9 -25 134 -25 l92 0 0 -79 c0
-43 -3 -79 -7 -79 -12 -1 -745 -1 -768 -1 -18 1 -20 8 -20 79 l0 77 103 0 c56
0 103 2 103 5 1 3 3 240 3 528 l2 522 -153 0 -153 0 0 88 0 89 98 0 c59 0 100
-4 104 -11z m-546 -478 l-1 -183 -125 0 -125 0 -3 183 -2 182 128 0 129 0 -1
-182z m375 87 c0 -52 0 -117 0 -145 0 -27 0 -67 0 -88 l-1 -37 -117 0 c-65 0
-122 3 -128 7 -8 5 -13 298 -6 351 1 4 57 7 126 7 l125 0 1 -95z m3447 -87
l-3 -183 -122 0 c-77 0 -123 3 -124 10 -1 5 -2 88 -3 183 l-1 172 128 0 127 0
-2 -182z m377 4 c0 -96 -2 -177 -5 -181 -3 -3 -60 -7 -127 -7 l-123 0 0 183 0
184 128 -3 127 -3 0 -173z m-2297 129 c10 -1 12 -103 11 -486 l0 -485 -172 1
-172 0 3 425 c2 456 2 453 55 502 14 13 40 29 59 35 27 10 140 14 216 8z m412
-19 c75 -49 75 -43 76 -520 l0 -422 -178 0 -178 1 0 485 0 485 120 -2 c110 -1
122 -3 160 -27z m-2314 -576 l-1 -181 -128 -1 -128 0 1 182 2 182 127 0 128
-1 -1 -181z m374 151 c1 -55 1 -281 1 -308 l-1 -25 -117 0 c-65 1 -123 4 -129
8 -11 7 -10 70 1 88 3 6 3 10 -2 10 -6 0 -9 215 -4 251 1 3 57 6 126 7 l125 1
0 -32z m3448 -151 l-3 -181 -125 0 -125 0 -1 175 c0 96 1 178 3 181 1 4 59 7
128 7 l125 0 -2 -182z m378 75 c0 -62 -5 -109 -11 -113 -7 -5 -7 -8 1 -8 7 0
10 -25 10 -67 l-1 -68 -125 0 -125 0 -3 182 -2 182 128 -1 128 -1 0 -106z"/>
<path d="M2546 3241 c-3 -9 -4 -69 -4 -133 l1 -117 99 -71 c55 -39 106 -74
113 -76 7 -3 20 5 29 17 15 22 14 24 -82 86 l-97 64 -5 121 c-5 117 -6 121
-27 123 -13 1 -25 -5 -27 -14z"/>
</g>
</svg>
